<svg data-v-423bf9ae="" xmlns="http://www.w3.org/2000/svg" viewBox="0 0 456 90" class="iconLeft"><!----><!----><!----><g data-v-423bf9ae="" id="e2241ddf-053b-4713-8bb8-a64c4a811f02" fill="white" transform="matrix(5.74708256902188,0,0,5.74708256902188,127.05293643293217,-3.102852334987034)"><path d="M0.69 6.94L1.61 6.94L1.61 13.55L2.18 13.55L2.18 6.94L4.44 6.94L4.44 6.44L2.18 6.44L2.18 5.45C2.18 4.41 2.88 3.70 3.78 3.71C4.20 3.71 4.63 3.88 4.98 4.14L5.25 3.67C4.84 3.35 4.30 3.15 3.77 3.15C2.60 3.14 1.61 4.07 1.61 5.49L1.61 6.44L0.69 6.44ZM5.74 13.55L6.33 13.55L6.33 9.60C6.45 7.91 7.43 6.85 9.04 6.85L9.04 6.24C7.74 6.27 6.79 6.92 6.33 8.09L6.33 6.26L5.74 6.26ZM9.86 9.91C9.86 12.05 11.35 13.57 13.41 13.57C14.57 13.57 15.57 13.13 16.24 12.40L15.90 12.03C15.32 12.67 14.43 13.03 13.44 13.03C11.75 13.03 10.51 11.84 10.43 10.07L16.80 10.07C16.84 7.81 15.55 6.24 13.41 6.24C11.35 6.24 9.86 7.77 9.86 9.91ZM10.44 9.55C10.58 7.90 11.77 6.78 13.41 6.78C15.08 6.78 16.16 7.90 16.27 9.55ZM18.10 9.91C18.10 12.05 19.60 13.57 21.66 13.57C22.82 13.57 23.81 13.13 24.49 12.40L24.15 12.03C23.56 12.67 22.68 13.03 21.69 13.03C19.99 13.03 18.76 11.84 18.68 10.07L25.05 10.07C25.09 7.81 23.80 6.24 21.66 6.24C19.60 6.24 18.10 7.77 18.10 9.91ZM18.69 9.55C18.83 7.90 20.02 6.78 21.66 6.78C23.32 6.78 24.40 7.90 24.51 9.55ZM26.35 9.91C26.35 12.05 27.83 13.59 29.90 13.59C31.33 13.59 32.47 12.85 33.01 11.65L33.01 13.55L33.60 13.55L33.60 3.16L33.01 3.16L33.01 8.16C32.47 6.96 31.33 6.22 29.89 6.22C27.83 6.22 26.35 7.76 26.35 9.91ZM26.92 9.91C26.94 8.11 28.21 6.78 29.97 6.78C31.74 6.78 33.01 8.09 33.01 9.91C33.01 11.73 31.74 13.05 29.97 13.05C28.20 13.05 26.94 11.73 26.92 9.91ZM35.80 9.90C35.80 12.05 37.32 13.57 39.40 13.57C41.48 13.57 42.99 12.05 42.99 9.90C42.99 7.77 41.48 6.24 39.40 6.24C37.32 6.24 35.80 7.77 35.80 9.90ZM36.37 9.91C36.37 8.08 37.65 6.80 39.40 6.80C41.16 6.80 42.42 8.08 42.42 9.91C42.42 11.75 41.16 13.02 39.40 13.02C37.65 13.02 36.37 11.75 36.37 9.91ZM45.12 13.55L45.70 13.55L45.70 9.98C45.70 8.08 46.73 6.87 48.48 6.83C49.94 6.83 50.82 7.71 50.82 9.21L50.82 13.55L51.39 13.55L51.39 9.98C51.39 8.08 52.42 6.87 54.17 6.83C55.64 6.83 56.50 7.71 56.50 9.21L56.50 13.55L57.08 13.55L57.08 9.10C57.08 7.32 56.06 6.24 54.31 6.24C52.81 6.27 51.77 7.00 51.32 8.36C51.07 7.03 50.11 6.24 48.64 6.24C47.19 6.27 46.17 6.93 45.70 8.18L45.70 6.26L45.12 6.26Z"></path></g><!----><g data-v-423bf9ae="" id="b1411449-c063-44d9-a209-4272e483b554" transform="matrix(1.120686125366386,0,0,1.120686125366386,0.42993792738817405,-11.268297030727531)" stroke="none" fill="white"><path d="M42.445 61.49l-1.704-7.002-13.577 3.443-1.436-5.941s6.055-9.132 5.027-13.463l-1.011-4.268-3.951-16.637c-1.039-4.382-7.252-3.126-6.165 1.461l2.874 12.091c.156.661-1.59 1.076-1.746.415L16.41 13.131a3.808 3.808 0 0 0-.125-.407c-.383-1.378-1.608-2.508-3.378-2.147l-.002-.011-.466.11.001.01c-1.742.472-2.331 2.032-2.054 3.434.015.138.037.277.071.421l2.652 11.395-1.607.38-1.948-8.219c-1.457 1.346-3.396 4.016-2.418 8.137l.998 4.225-1.343.32-1.172-4.943c-1.403 1.226-4.012 4.047-2.967 8.458l6.633 27.988-6.076 1.479a3.617 3.617 0 0 0 1.71 7.028l6.032-1.468 31.494-7.831zM11.419 71.296l4.627 19.521 18.999-.288-5.728-23.693zM57.519 61.49l1.704-7.002L72.8 57.932l1.437-5.941s-6.055-9.132-5.028-13.463l1.012-4.268 3.95-16.637c1.039-4.382 7.253-3.126 6.165 1.461l-2.874 12.091c-.155.661 1.59 1.076 1.746.415l4.347-18.458c.034-.145.079-.277.126-.407.383-1.378 1.608-2.508 3.378-2.147l.002-.011.466.11-.001.01c1.742.472 2.331 2.032 2.054 3.434a3.421 3.421 0 0 1-.07.421l-2.652 11.395 1.606.38 1.948-8.219c1.457 1.346 3.396 4.016 2.419 8.137L91.83 30.46l1.344.32 1.173-4.943c1.403 1.226 4.012 4.047 2.967 8.458L90.68 62.283l6.076 1.479a3.617 3.617 0 1 1-1.711 7.028l-6.032-1.468-31.494-7.832zM88.545 71.296l-4.626 19.521-19-.288 5.728-23.693z"></path><path d="M43.579 52.396l-7.013-6.866 1.635-1.671 7.012 6.867-1.634 1.67zM56.543 73.229l-4.965-7.824 2.27-1.44 4.964 7.823-2.269 1.441zM43.586 73.229l-2.269-1.441 4.965-7.823 2.269 1.44-4.965 7.824zM54.678 52.833l-1.729-1.765 7.411-7.256 1.729 1.765-7.411 7.256zM50.815 47.521h-2.686v-8.29h2.686v8.29z"></path></g><!----></svg>